{"title":"Battle Of Sexes 2017 720p BluRay x264 Mafiaking M2Tv","magnet":"magnet:?xt=urn:btih:796030d13e1f60700ab311151163c6e8deafd4bc&dn=Battle+Of+Sexes+2017+720p+BluRay+x264+Mafiaking+M2Tv&tr=udp%3A%2F%2Ftracker.leechers-paradise.org%3A6969&tr=udp%3A%2F%2Fzer0day.ch%3A1337&tr=udp%3A%2F%2Fopen.demonii.com%3A1337&tr=udp%3A%2F%2Ftracker.coppersurfer.tk%3A6969&tr=udp%3A%2F%2Fexodus.desync.com%3A6969","uploader":"mafiaaking","categoryP":"video","categoryS":"movies","size":"1266557050","seeders":"0","leechers":"3","description":"Battle Of Sexes (2017) 720p BluRay x264 [Dual-Audio][English DD5.1+Hindi DD5.1] - Mafiaking - M2Tv\r\n\r\nIMDB=http://www.imdb.com/title/tt4622512/\r\n\r\nRatings: 6.9/10\r\n\r\nGenere:      Biography, Comedy, Drama  \r\n\r\nGeneral\r\nComplete name               : Battle Of Sexes (2017) 720p BluRay x264 [Dual-Audio][English DD5.1+Hindi DD5.1] - Mafiaking - M2Tv.mkv\r\nFormat                      : Matroska\r\nFormat version              : Version 4 / Version 2\r\nFile size                   : 1.17 GiB\r\nDuration                    : 2 h 1 min\r\nOverall bit rate            : 1 375 kb/s\r\nMovie name                  : Battle Of Sexes (2017) 720p BluRay x264 [Dual-Audio][English DD5.1+Hindi DD5.1] - Mafiaking - M2Tv\r\n\r\nVideo\r\nID                          : 1\r\nFormat                      : AVC\r\nCodec ID                    : V_MPEG4/ISO/AVC\r\nDuration                    : 2 h 1 min\r\nBit rate                    : 925 kb/s\r\nWidth                       : 1 280 pixels\r\nHeight                      : 536 pixels\r\nDisplay aspect ratio        : 2.40:1\r\nFrame rate mode             : Constant\r\nFrame rate                  : 23.976 (24000/1001) FPS\r\nStream size                 : 805 MiB (67%)\r\nTitle                       : Mafiaking\r\nLanguage                    : English\r\nDefault                     : Yes\r\nForced                      : No\r\n\r\nAudio #1\r\nID                          : 2\r\nFormat                      : AC-3\r\nDuration                    : 2 h 1 min\r\nBit rate mode               : Constant\r\nBit rate                    : 224 kb/s\r\nChannel(s)                  : 6 channels\r\nSampling rate               : 48.0 kHz\r\nStream size                 : 195 MiB (16%)\r\nTitle                       : Mafiaking\r\nLanguage                    : Hindi\r\nService kind                : Complete Main\r\nDefault                     : Yes\r\n\r\nAudio #2\r\nID                          : 3\r\nFormat                      : AC-3\r\nDuration                    : 2 h 1 min\r\nBit rate mode               : Constant\r\nBit rate                    : 224 kb/s\r\nChannel(s)                  : 6 channels\r\nSampling rate               : 48.0 kHz\r\nStream size                 : 195 MiB (16%)\r\nTitle                       : Mafiaking\r\nLanguage                    : English\r\nService kind                : Complete Main\r\nDefault                     : No\r\n\r\nScreens:-\r\n <a href=\"\nhttps://www.lookimg.com/image/oZQkd\" rel=\"nofollow\" target=\"_NEW\">\nhttps://www.lookimg.com/image/oZQkd</a> <a href=\"\nhttps://www.lookimg.com/image/oQytv\" rel=\"nofollow\" target=\"_NEW\">\nhttps://www.lookimg.com/image/oQytv</a> <a href=\"\nhttps://www.lookimg.com/image/oZ9JE\" rel=\"nofollow\" target=\"_NEW\">\nhttps://www.lookimg.com/image/oZ9JE</a> <a href=\"\nhttps://www.lookimg.com/image/oQrTM\" rel=\"nofollow\" target=\"_NEW\">\nhttps://www.lookimg.com/image/oQrTM</a> <a href=\"\nhttps://www.lookimg.com/image/oZZV9\" rel=\"nofollow\" target=\"_NEW\">\nhttps://www.lookimg.com/image/oZZV9</a> <a href=\"\nhttps://www.lookimg.com/image/oZU28\" rel=\"nofollow\" target=\"_NEW\">\nhttps://www.lookimg.com/image/oZU28</a> <a href=\"\nhttps://www.lookimg.com/image/oZvst\" rel=\"nofollow\" target=\"_NEW\">\nhttps://www.lookimg.com/image/oZvst</a> <a href=\"\nhttps://www.lookimg.com/image/oZKtm\" rel=\"nofollow\" target=\"_NEW\">\nhttps://www.lookimg.com/image/oZKtm</a> <a href=\"\nhttps://www.lookimg.com/image/oZxYJ\" rel=\"nofollow\" target=\"_NEW\">\nhttps://www.lookimg.com/image/oZxYJ</a> <a href=\"\nhttps://www.lookimg.com/image/oZAZg\" rel=\"nofollow\" target=\"_NEW\">\nhttps://www.lookimg.com/image/oZAZg</a> <a href=\"\nhttps://www.lookimg.com/image/oZznD\" rel=\"nofollow\" target=\"_NEW\">\nhttps://www.lookimg.com/image/oZznD</a> <a href=\"\nhttps://www.lookimg.com/image/oZBT5\" rel=\"nofollow\" target=\"_NEW\">\nhttps://www.lookimg.com/image/oZBT5</a>","last_updated":"2017-12-24T12:01:07.925Z","parsed":{"xt":"urn:btih:796030d13e1f60700ab311151163c6e8deafd4bc","dn":"Battle Of Sexes 2017 720p BluRay x264 Mafiaking M2Tv","tr":["udp://exodus.desync.com:6969","udp://open.demonii.com:1337","udp://tracker.coppersurfer.tk:6969","udp://tracker.leechers-paradise.org:6969","udp://zer0day.ch:1337"],"infoHash":"796030d13e1f60700ab311151163c6e8deafd4bc","infoHashBuffer":{"type":"Buffer","data":[121,96,48,209,62,31,96,112,10,179,17,21,17,99,198,232,222,175,212,188]},"name":"Battle Of Sexes 2017 720p BluRay x264 Mafiaking M2Tv","announce":["udp://exodus.desync.com:6969","udp://open.demonii.com:1337","udp://tracker.coppersurfer.tk:6969","udp://tracker.leechers-paradise.org:6969","udp://zer0day.ch:1337"],"urlList":[]}}